<?xml version="1.0" encoding="UTF-8" standalone="no"?>
<svg
   width="126"
   height="24"
   viewBox="0 0 126 24"
   fill="none"
   version="1.1"
   id="svg54"
   sodipodi:docname="spotangels.svg"
   inkscape:version="1.1.1 (3bf5ae0d25, 2021-09-20, custom)"
   xmlns:inkscape="http://www.inkscape.org/namespaces/inkscape"
   xmlns:sodipodi="http://sodipodi.sourceforge.net/DTD/sodipodi-0.dtd"
   xmlns="http://www.w3.org/2000/svg"
   xmlns:svg="http://www.w3.org/2000/svg">
  <defs
     id="defs58" />
  <sodipodi:namedview
     id="namedview56"
     pagecolor="#ffffff"
     bordercolor="#666666"
     borderopacity="1.0"
     inkscape:pageshadow="2"
     inkscape:pageopacity="0.0"
     inkscape:pagecheckerboard="0"
     showgrid="false"
     inkscape:zoom="5.0357143"
     inkscape:cx="70"
     inkscape:cy="4.5673759"
     inkscape:window-width="1920"
     inkscape:window-height="1011"
     inkscape:window-x="0"
     inkscape:window-y="0"
     inkscape:window-maximized="1"
     inkscape:current-layer="svg54" />
  <path
     d="M24.0001 19.7992C24.0001 22.1186 18.8111 23.9988 12.4102 23.9988C6.00928 23.9988 0.820312 22.1186 0.820312 19.7992C0.820312 17.4798 6.00928 15.5996 12.4102 15.5996C18.8111 15.5996 24.0001 17.4798 24.0001 19.7992Z"
     fill="#545E69"
     fill-opacity="0.05"
     id="path2" />
  <path
     d="M20.5593 18.1559C20.5593 19.5677 19.5864 20.7122 18.3862 20.7122C17.1861 20.7122 16.2131 19.5677 16.2131 18.1559C16.2131 16.7441 17.1861 15.5996 18.3862 15.5996C19.5864 15.5996 20.5593 16.7441 20.5593 18.1559Z"
     fill="#212529"
     id="path4" />
  <path
     fill-rule="evenodd"
     clip-rule="evenodd"
     d="M4.90703 12.3922L4.75431 12.4439H4.02968H2.80095L2.42288 12.0104L2.13933 10.8765L1.9503 9.77595H1.57223L1.22567 8.54203V7.4415L0.847597 7.14136L0.343506 6.67447V5.87408L0.658563 4.9403L1.22567 4.77355L2.42288 4.9403L4.02968 5.47389L5.73098 6.14088L5.87179 6.24202C6.78771 4.56866 8.56968 3.31 12.04 3.10252C15.0589 2.92204 16.8884 3.68448 18.0241 4.9089L20.4756 4.20223L22.298 3.88713L22.895 4.61187V5.49417L22.5494 6.21891L22.078 6.471V7.22725V7.88897L21.7324 8.48768L21.324 8.73976L21.1668 9.43299V10.4413L20.7584 10.977L20.0704 11.484C20.3342 14.9146 19.5908 16.4459 18.0117 17.8155C16.6673 18.9814 14.5259 19.301 13.36 19.3707L12.3753 19.4295C11.2094 19.4993 9.04865 19.4369 7.59433 18.4383C5.88631 17.2654 4.99241 15.8323 4.90703 12.3922Z"
     fill="white"
     id="path6" />
  <path
     fill-rule="evenodd"
     clip-rule="evenodd"
     d="M20.0769 14.6442C17.9707 16.5015 15.1771 17.4822 12.2302 17.1337C9.22975 16.7789 6.66545 15.1162 4.99207 12.7441C5.02576 15.0603 5.67117 16.4208 6.80292 17.6968C8.08348 19.1415 10.2321 19.6238 11.4094 19.7631L12.4041 19.8807C13.5814 20.0199 15.7662 19.825 17.3114 18.7145C18.6533 17.7504 19.5651 16.8228 20.0769 14.6442Z"
     fill="#424D52"
     fill-opacity="0.2"
     id="path8" />
  <path
     d="M17.5661 9.36325C17.6047 10.0681 17.2311 10.6619 16.7318 10.6897C16.2325 10.7174 15.7965 10.1685 15.758 9.46371C15.7195 8.75888 16.093 8.16501 16.5923 8.13727C17.0916 8.10953 17.5276 8.65842 17.5661 9.36325Z"
     fill="#212529"
     id="path10" />
  <path
     d="M12.5033 9.64855C12.5419 10.3534 12.1683 10.9472 11.669 10.9749C11.1697 11.0026 10.7337 10.4537 10.6951 9.74886C10.6565 9.04403 11.03 8.4502 11.5293 8.4225C12.0287 8.3948 12.4647 8.94373 12.5033 9.64855Z"
     fill="#212529"
     id="path12" />
  <path
     d="M16.1614 12.9145L12.8401 13.0987C12.5343 13.1157 12.2966 13.4179 12.3741 13.7605C12.5676 14.6162 13.1297 15.6428 14.6405 15.559C16.1512 15.4752 16.5978 14.3927 16.6968 13.5207C16.7364 13.1716 16.4672 12.8975 16.1614 12.9145Z"
     fill="#544242"
     id="path14" />
  <path
     fill-rule="evenodd"
     clip-rule="evenodd"
     d="M16.4091 14.513C15.9788 14.4726 15.1516 14.416 14.5571 14.4489C13.9814 14.4809 13.1983 14.6204 12.7653 14.7087C13.1085 15.2208 13.6844 15.6131 14.641 15.5601C15.5939 15.5072 16.1231 15.0571 16.4091 14.513Z"
     fill="#CE2D53"
     id="path16" />
  <path
     fill-rule="evenodd"
     clip-rule="evenodd"
     d="M6.9458 4.09024C6.83351 4.04447 6.76102 4.00553 6.71572 3.977C6.72998 3.94284 6.75557 3.89499 6.80104 3.83428C6.92795 3.66481 7.17303 3.44437 7.58571 3.20687C8.40868 2.73325 9.7259 2.29019 11.5015 2.02021C13.2771 1.75024 14.6655 1.78192 15.5907 1.98973C16.0547 2.09394 16.3535 2.23169 16.5245 2.35586C16.5857 2.40035 16.6242 2.43846 16.6478 2.46685C16.6129 2.50758 16.5551 2.56634 16.4612 2.64346C16.3248 2.75558 16.1459 2.87666 15.9244 3.00359C16.6046 3.26524 17.1705 3.61371 17.6431 4.0279C18.0756 3.66336 18.5981 3.05982 18.4791 2.26685C18.3884 1.66216 18.0288 1.19867 17.5827 0.874647C17.146 0.557428 16.5917 0.344172 15.9839 0.207639C14.7655 -0.0660304 13.1355 -0.0747898 11.2307 0.214825C9.3259 0.50444 7.77112 0.997442 6.68736 1.62114C6.14668 1.9323 5.67971 2.30083 5.35551 2.73375C5.02434 3.17596 4.81674 3.72568 4.90746 4.33038C5.00488 4.97983 5.47606 5.37997 5.92924 5.62422C6.27494 5.0915 6.69166 4.60256 7.19088 4.1769C7.10059 4.14901 7.01888 4.12003 6.9458 4.09024ZM16.6972 2.39743C16.6973 2.39743 16.6967 2.39898 16.6951 2.40208C16.6963 2.39899 16.6971 2.39744 16.6972 2.39743ZM6.65158 3.92916C6.64911 3.92668 6.64809 3.92538 6.6482 3.92535C6.64831 3.92532 6.64954 3.92656 6.65158 3.92916Z"
     fill="#FFCC00"
     id="path18" />
  <path
     fill-rule="evenodd"
     clip-rule="evenodd"
     d="M18.5748 5.08639C18.4499 4.90293 18.3147 4.72608 18.1682 4.55685C18.6098 4.39173 19.0579 4.22929 19.488 4.08067C20.1392 3.85565 20.7556 3.66015 21.2487 3.53522C21.4946 3.47293 21.7173 3.42623 21.9022 3.40314C21.9947 3.39159 22.0839 3.38513 22.1654 3.38705C22.2426 3.38887 22.335 3.39847 22.4216 3.43347C22.6851 3.53998 22.8919 3.75945 23.0398 3.99887C23.1904 4.24247 23.2977 4.53456 23.3487 4.83106C23.4463 5.39857 23.3498 6.12436 22.7455 6.47053C22.5077 6.6067 22.453 6.6864 22.4427 6.71006L22.4424 6.71065C22.4411 6.71373 22.4401 6.71593 22.4416 6.7263C22.444 6.74309 22.4531 6.77587 22.4823 6.83276C22.5964 7.05447 22.6487 7.43004 22.6069 7.78975C22.5642 8.15653 22.4135 8.59214 22.0294 8.86433C21.7968 9.02913 21.6218 9.11058 21.5234 9.15385C21.5286 9.35422 21.5076 9.96797 21.3521 10.5489C21.2741 10.8404 21.156 11.1485 20.9714 11.3927C20.8083 11.6085 20.5833 11.7856 20.2885 11.8405C20.2745 11.6322 20.2569 11.417 20.2358 11.1948C20.3179 11.1639 20.3937 11.103 20.4671 11.0057C20.5809 10.8552 20.6721 10.6369 20.7402 10.3826C20.8759 9.87526 20.8941 9.32326 20.8897 9.16859C20.8874 9.08672 20.8854 8.96637 20.931 8.85684C20.991 8.71292 21.1024 8.64731 21.1716 8.61286C21.2005 8.59847 21.2292 8.58578 21.2598 8.5723L21.2598 8.57229C21.3565 8.52966 21.4712 8.47908 21.6648 8.3419C21.8437 8.2151 21.9458 7.98674 21.9774 7.71543C22.0097 7.43705 21.9575 7.2004 21.9196 7.12667C21.8262 6.94514 21.7512 6.70853 21.8623 6.45341C21.9603 6.22833 22.1755 6.06234 22.4322 5.91527C22.686 5.76993 22.8048 5.40889 22.7242 4.9401C22.6861 4.71844 22.6059 4.50502 22.5018 4.33647C22.3974 4.16745 22.285 4.06872 22.1917 4.0288C22.1878 4.02814 22.1751 4.02615 22.1506 4.02558C22.1104 4.02463 22.0542 4.02774 21.9802 4.03698C21.8321 4.05547 21.6377 4.09524 21.4032 4.15464C20.9356 4.27312 20.3387 4.46194 19.6936 4.68483C19.329 4.81081 18.9509 4.94699 18.5748 5.08639Z"
     fill="#212529"
     id="path20" />
  <path
     fill-rule="evenodd"
     clip-rule="evenodd"
     d="M4.41744 12.0546C4.42047 12.275 4.42617 12.4881 4.43456 12.6943C4.35669 12.7016 4.27827 12.7097 4.19863 12.7179L4.19861 12.7179L4.05551 12.7326C3.79478 12.7587 3.52085 12.7817 3.24617 12.7708C2.87614 12.7561 2.60221 12.5572 2.41232 12.306C2.22765 12.0618 2.10936 11.7537 2.03126 11.4622C1.87566 10.8813 1.85442 10.2677 1.8596 10.0673C1.76114 10.024 1.58607 9.94254 1.35345 9.7777C0.96925 9.50544 0.818315 9.06983 0.77556 8.70309C0.733628 8.34341 0.785868 7.96792 0.89986 7.74627C0.929107 7.6894 0.938179 7.65662 0.940583 7.63983C0.942066 7.62946 0.94109 7.62726 0.939726 7.62418L0.939464 7.62359C0.929155 7.59993 0.874379 7.52023 0.636579 7.384C0.0320797 7.03771 -0.064627 6.31198 0.0328052 5.74458C0.0837081 5.44814 0.190986 5.15612 0.341458 4.91259C0.489354 4.67324 0.696156 4.45387 0.959653 4.34745C1.04624 4.31248 1.13861 4.3029 1.21586 4.30111C1.29739 4.29921 1.3866 4.30569 1.47905 4.31726C1.66399 4.3404 1.88681 4.38717 2.13275 4.44952C2.62595 4.57458 3.24242 4.77023 3.89381 4.9954C4.53887 5.21839 5.22418 5.47244 5.86768 5.72004C5.7534 5.90233 5.64719 6.0895 5.54862 6.28081C4.93836 6.0469 4.29479 5.80906 3.68838 5.59943C3.04313 5.37638 2.44609 5.18741 1.97837 5.06882C1.74384 5.00935 1.54934 4.96953 1.40127 4.951C1.32723 4.94174 1.27102 4.93861 1.23086 4.93955C1.20636 4.94012 1.19366 4.94211 1.18972 4.94276C1.09646 4.98265 0.984074 5.08134 0.879672 5.2503C0.775558 5.4188 0.695491 5.63217 0.657437 5.85378C0.576954 6.32249 0.695875 6.68351 0.949684 6.82891C1.20652 6.97604 1.42178 7.14207 1.51987 7.36715C1.63105 7.62226 1.55608 7.85882 1.46274 8.0403C1.42484 8.11401 1.37269 8.35061 1.40514 8.62896C1.43677 8.90025 1.53898 9.12861 1.71796 9.25544C1.9116 9.39266 2.02632 9.44327 2.12302 9.48592L2.12303 9.48593C2.15362 9.49942 2.1824 9.51212 2.2113 9.52651C2.28053 9.56097 2.39197 9.6266 2.45197 9.77052C2.49764 9.88006 2.49565 10.0004 2.49335 10.0823C2.489 10.2369 2.50737 10.7888 2.64327 11.2961C2.71138 11.5504 2.80268 11.7687 2.91653 11.9193C3.02518 12.063 3.13875 12.1275 3.27076 12.1327C3.49812 12.1417 3.73437 12.1229 3.99245 12.0971L4.12678 12.0833H4.12678C4.22116 12.0736 4.31841 12.0635 4.41744 12.0546Z"
     fill="#212529"
     id="path22" />
  <path
     fill-rule="evenodd"
     clip-rule="evenodd"
     d="M11.8618 3.12779C9.0524 3.28387 7.38982 4.48382 6.40204 6.06058C6.31094 6.206 6.22527 6.35516 6.14478 6.50762C5.95169 6.43186 5.7523 6.35448 5.54922 6.27666C6.59848 4.24135 8.51188 2.67423 11.827 2.49006C18.9699 2.09322 19.764 6.85236 20.1957 10.8028C20.6556 15.0114 19.9267 16.7667 18.1788 18.3211C16.7805 19.5646 14.5157 19.8961 13.2977 19.9638L12.2691 20.0209C11.0511 20.0886 8.76392 20.01 7.23857 18.9289C5.38862 17.6177 4.47152 16.0124 4.41724 12.0508C4.54301 12.0394 4.67165 12.0298 4.80093 12.0249C4.88319 12.0217 4.96649 12.0204 5.05073 12.0216C5.07519 13.9126 5.2997 15.1921 5.69595 16.1365C6.10612 17.1141 6.72062 17.7809 7.60323 18.4065C8.25642 18.8694 9.10406 19.1366 9.96851 19.2749C10.8268 19.4122 11.6561 19.4153 12.2342 19.3832L13.2629 19.326C13.8411 19.2939 14.665 19.199 15.5031 18.9674C16.3472 18.7342 17.1606 18.3747 17.7594 17.8422C18.5685 17.1227 19.1067 16.3918 19.4078 15.3747C19.716 14.3339 19.7917 12.9409 19.5657 10.8728C19.3478 8.87915 19.0482 6.86533 18.0103 5.38471C17.0217 3.97436 15.2747 2.93817 11.8618 3.12779Z"
     fill="#212529"
     id="path24" />
  <path
     d="M13.1345 19.9821C13.1345 21.3939 12.1616 22.5384 10.9614 22.5384C9.76126 22.5384 8.78833 21.3939 8.78833 19.9821C8.78833 18.5703 9.76126 17.4258 10.9614 17.4258C12.1616 17.4258 13.1345 18.5703 13.1345 19.9821Z"
     fill="#212529"
     id="path26" />
  <path
     d="M11.3235 19.9842C11.3235 20.5893 10.9992 21.0798 10.5991 21.0798C10.1991 21.0798 9.87476 20.5893 9.87476 19.9842C9.87476 19.3792 10.1991 18.8887 10.5991 18.8887C10.9992 18.8887 11.3235 19.3792 11.3235 19.9842Z"
     fill="white"
     id="path28" />
  <path
     d="M7.7018 17.4254C7.7018 18.8372 6.72887 19.9817 5.5287 19.9817C4.32852 19.9817 3.35559 18.8372 3.35559 17.4254C3.35559 16.0136 4.32852 14.8691 5.5287 14.8691C6.72887 14.8691 7.7018 16.0136 7.7018 17.4254Z"
     fill="#212529"
     id="path30" />
  <path
     d="M5.891 17.4276C5.891 18.0326 5.56669 18.5231 5.16663 18.5231C4.76657 18.5231 4.44226 18.0326 4.44226 17.4276C4.44226 16.8225 4.76657 16.332 5.16663 16.332C5.56669 16.332 5.891 16.8225 5.891 17.4276Z"
     fill="white"
     id="path32" />
  <path
     d="M28.9763 16.0752L29.2751 15.6445C29.3982 15.4805 29.5417 15.3984 29.7058 15.3984C29.823 15.3984 29.9519 15.4424 30.0925 15.5303C31.0359 16.2158 31.9587 16.5586 32.8611 16.5586C33.5349 16.5586 34.074 16.3945 34.4783 16.0664C34.8884 15.7324 35.0935 15.29 35.0935 14.7393C35.0935 14.3643 34.9792 14.0303 34.7507 13.7373C34.5281 13.4385 34.2351 13.1895 33.8718 12.9902C33.5144 12.7852 33.1189 12.5889 32.6853 12.4014C32.2517 12.2139 31.8181 12.0117 31.3845 11.7949C30.9509 11.5781 30.5525 11.3379 30.1892 11.0742C29.8318 10.8047 29.5388 10.459 29.3103 10.0371C29.0876 9.61523 28.9763 9.1377 28.9763 8.60449C28.9763 7.5498 29.366 6.7002 30.1453 6.05566C30.9304 5.40527 31.9148 5.08008 33.0984 5.08008C33.7781 5.08008 34.4021 5.18262 34.9705 5.3877C35.5388 5.58691 35.9753 5.80664 36.28 6.04688C36.4617 6.17578 36.5525 6.33105 36.5525 6.5127C36.5525 6.61816 36.5232 6.73242 36.4646 6.85547L36.2097 7.30371C36.0984 7.49707 35.9548 7.59375 35.7791 7.59375C35.6677 7.59375 35.5417 7.55273 35.4011 7.4707C34.5808 6.97852 33.7986 6.73242 33.0544 6.73242C32.3865 6.73242 31.8386 6.89648 31.4109 7.22461C30.9832 7.54688 30.7693 7.97754 30.7693 8.5166C30.7693 8.88574 30.8806 9.21387 31.1033 9.50098C31.3318 9.78223 31.6248 10.0195 31.9822 10.2129C32.3455 10.4004 32.7439 10.585 33.1775 10.7666C33.6111 10.9424 34.0447 11.1387 34.4783 11.3555C34.9177 11.5723 35.3162 11.8154 35.6736 12.085C36.0369 12.3486 36.3298 12.6973 36.5525 13.1309C36.781 13.5586 36.8953 14.0479 36.8953 14.5986C36.8953 15.6299 36.532 16.4912 35.8054 17.1826C35.0789 17.874 34.0974 18.2197 32.8611 18.2197C32.0525 18.2197 31.3142 18.082 30.6462 17.8066C29.9841 17.5312 29.4509 17.2295 29.0466 16.9014C28.8943 16.7607 28.8181 16.6172 28.8181 16.4707C28.8181 16.3418 28.8708 16.21 28.9763 16.0752Z"
     fill="#212529"
     id="path34"
     style="fill:#ffffff;fill-opacity:1" />
  <path
     d="M38.8552 21.0059V9.4834C38.8552 9.09082 39.0544 8.89453 39.4529 8.89453H39.866C40.2644 8.89453 40.4636 9.06152 40.4636 9.39551V9.93164L40.4285 10.4238H40.4636C40.4871 10.377 40.5193 10.3154 40.5603 10.2393C40.6072 10.1572 40.7156 10.0166 40.8855 9.81738C41.0554 9.6123 41.2458 9.43359 41.4568 9.28125C41.6677 9.12891 41.9578 8.99121 42.3269 8.86816C42.696 8.73926 43.0945 8.6748 43.5222 8.6748C44.741 8.6748 45.7107 9.11426 46.4314 9.99316C47.1521 10.8662 47.5125 12.0176 47.5125 13.4473C47.5125 14.8828 47.1257 16.0371 46.3523 16.9102C45.5847 17.7832 44.6003 18.2197 43.3992 18.2197C43.0125 18.2197 42.6492 18.1641 42.3093 18.0527C41.9753 17.9414 41.7058 17.8066 41.5007 17.6484C41.2957 17.4902 41.1199 17.332 40.9734 17.1738C40.8269 17.0098 40.7214 16.8721 40.657 16.7607L40.5691 16.5938H40.5339C40.5691 16.8105 40.5867 17.0742 40.5867 17.3848V21.0059C40.5867 21.4043 40.3933 21.6035 40.0066 21.6035H39.4529C39.0544 21.6035 38.8552 21.4043 38.8552 21.0059ZM40.5515 13.4824C40.5515 14.0391 40.6453 14.5576 40.8328 15.0381C41.0261 15.5186 41.322 15.917 41.7205 16.2334C42.1248 16.5498 42.5935 16.708 43.1267 16.708C43.8767 16.708 44.5007 16.418 44.9988 15.8379C45.5027 15.2578 45.7546 14.4668 45.7546 13.4648C45.7546 12.4863 45.5144 11.6982 45.0339 11.1006C44.5593 10.5029 43.9412 10.2041 43.1794 10.2041C42.4294 10.2041 41.8025 10.4795 41.2986 11.0303C40.8005 11.5752 40.5515 12.3926 40.5515 13.4824Z"
     fill="#212529"
     id="path36"
     style="fill:#ffffff;fill-opacity:1" />
  <path
     d="M48.9011 13.4297C48.9011 12.5332 49.1179 11.7217 49.5515 10.9951C49.991 10.2627 50.5828 9.69434 51.3269 9.29004C52.0769 8.87988 52.9001 8.6748 53.7966 8.6748C54.4705 8.6748 55.1062 8.79492 55.7039 9.03516C56.3074 9.27539 56.8289 9.60352 57.2683 10.0195C57.7136 10.4355 58.0652 10.9395 58.323 11.5312C58.5808 12.123 58.7097 12.7559 58.7097 13.4297C58.7097 14.332 58.49 15.1523 58.0505 15.8906C57.6111 16.623 57.0164 17.1943 56.2664 17.6045C55.5164 18.0146 54.6931 18.2197 53.7966 18.2197C52.9001 18.2197 52.0769 18.0146 51.3269 17.6045C50.5828 17.1943 49.991 16.623 49.5515 15.8906C49.1179 15.1523 48.9011 14.332 48.9011 13.4297ZM50.6589 13.4297C50.6589 14.3672 50.9636 15.1494 51.573 15.7764C52.1882 16.3975 52.9294 16.708 53.7966 16.708C54.6755 16.708 55.4167 16.3975 56.0203 15.7764C56.6238 15.1553 56.9255 14.373 56.9255 13.4297C56.9255 12.498 56.6238 11.7246 56.0203 11.1094C55.4167 10.4941 54.6755 10.1865 53.7966 10.1865C52.9236 10.1865 52.1824 10.4941 51.573 11.1094C50.9636 11.7246 50.6589 12.498 50.6589 13.4297Z"
     fill="#212529"
     id="path38"
     style="fill:#ffffff;fill-opacity:1" />
  <path
     d="M59.7732 9.80859V9.58008C59.7732 9.18164 59.9724 8.98242 60.3708 8.98242H61.0212V6.9873C61.0212 6.58887 61.2175 6.38965 61.6101 6.38965H62.1375C62.53 6.38965 62.7263 6.58887 62.7263 6.9873V8.98242H64.3083C64.7068 8.98242 64.906 9.18164 64.906 9.58008V9.80859C64.906 10.207 64.7126 10.4062 64.3259 10.4062H62.7263V14.458C62.7263 14.7861 62.7644 15.0762 62.8406 15.3281C62.9226 15.5801 63.0222 15.7764 63.1394 15.917C63.2566 16.0518 63.3972 16.166 63.5613 16.2598C63.7312 16.3477 63.8835 16.4092 64.0183 16.4443C64.1531 16.4736 64.2996 16.4941 64.4578 16.5059C64.6921 16.5234 64.8533 16.5762 64.9412 16.6641C65.0349 16.752 65.0818 16.8984 65.0818 17.1035V17.4814C65.0818 17.874 64.8445 18.0703 64.3699 18.0703C63.4031 18.0703 62.5974 17.7861 61.9529 17.2178C61.3083 16.6436 60.9861 15.8115 60.9861 14.7217V10.4062H60.3533C59.9666 10.4062 59.7732 10.207 59.7732 9.80859Z"
     fill="#212529"
     id="path40"
     style="fill:#ffffff;fill-opacity:1" />
  <path
     d="M65.7322 17.1387L69.7224 5.83594C69.863 5.42578 70.1472 5.2207 70.575 5.2207H71.7263C72.1658 5.2207 72.447 5.42578 72.5701 5.83594L76.5691 17.1387C76.6101 17.25 76.6306 17.3555 76.6306 17.4551C76.6306 17.5723 76.5984 17.6748 76.5339 17.7627C76.4226 17.9209 76.2292 18 75.9539 18H75.1277C74.6882 18 74.407 17.7949 74.2839 17.3848L73.3787 14.7217H68.8962L68.0173 17.3672C67.8943 17.7891 67.613 18 67.1736 18H66.3386C66.0574 18 65.864 17.9238 65.7585 17.7715C65.7 17.6836 65.6707 17.5811 65.6707 17.4639C65.6707 17.3643 65.6912 17.2559 65.7322 17.1387ZM69.4763 12.832H72.8074L71.6736 9.41309C71.6091 9.20215 71.533 8.93262 71.4451 8.60449C71.363 8.27051 71.2957 7.99219 71.2429 7.76953L71.1638 7.43555H71.1287C70.9412 8.27344 70.7742 8.93262 70.6277 9.41309L69.4763 12.832Z"
     fill="#212529"
     id="path42"
     style="fill:#ffffff;fill-opacity:1" />
  <path
     d="M77.9841 17.2441V9.58008C77.9841 9.07617 78.2302 8.82422 78.7224 8.82422H79.4255C79.9177 8.82422 80.1638 9.07617 80.1638 9.58008V10.1338L80.1287 10.5469H80.1638C80.2517 10.377 80.3542 10.21 80.4714 10.0459C80.5945 9.88184 80.7527 9.71191 80.946 9.53613C81.1453 9.35449 81.3591 9.19922 81.5876 9.07031C81.8162 8.93555 82.0886 8.82422 82.405 8.73633C82.7273 8.64844 83.0671 8.60449 83.4246 8.60449C85.5574 8.60449 86.6238 9.76758 86.6238 12.0938V17.2441C86.6238 17.748 86.3718 18 85.8679 18H85.0945C84.5906 18 84.3386 17.748 84.3386 17.2441V12.5684C84.3386 11.959 84.2332 11.4961 84.0222 11.1797C83.8113 10.8574 83.4363 10.6963 82.8972 10.6963C82.1062 10.6963 81.4675 10.9863 80.9812 11.5664C80.4949 12.1406 80.2517 12.8525 80.2517 13.7021V17.2441C80.2517 17.748 80.0056 18 79.5134 18H78.7224C78.2302 18 77.9841 17.748 77.9841 17.2441Z"
     fill="#212529"
     id="path44"
     style="fill:#ffffff;fill-opacity:1" />
  <path
     d="M88.241 13.1572C88.241 12.5244 88.3289 11.9355 88.5046 11.3906C88.6863 10.8398 88.9441 10.3564 89.2781 9.94043C89.6179 9.52441 90.0515 9.19922 90.5789 8.96484C91.1121 8.72461 91.7126 8.60449 92.3806 8.60449C92.7791 8.60449 93.1453 8.6543 93.4792 8.75391C93.8132 8.84766 94.074 8.96484 94.2615 9.10547C94.4548 9.24023 94.6189 9.37793 94.7537 9.51855C94.8884 9.65332 94.9792 9.76758 95.0261 9.86133L95.0964 10.0107H95.1316C95.1199 9.94629 95.114 9.86719 95.114 9.77344V9.43066C95.114 9.25488 95.1785 9.11133 95.3074 9C95.4363 8.88281 95.6179 8.82422 95.8523 8.82422H96.4675C96.9597 8.82422 97.2058 9.07617 97.2058 9.58008V17.4463C97.2058 18.0557 97.1121 18.6064 96.9246 19.0986C96.7429 19.5967 96.4968 20.0068 96.1863 20.3291C95.8816 20.6572 95.5212 20.9326 95.1052 21.1553C94.6892 21.3779 94.2585 21.5361 93.8132 21.6299C93.3738 21.7295 92.9197 21.7793 92.4509 21.7793C91.4138 21.7793 90.5203 21.6182 89.7703 21.2959C89.448 21.1553 89.2869 20.9531 89.2869 20.6895C89.2869 20.5781 89.3162 20.4551 89.3748 20.3203L89.5154 19.9072C89.615 19.6846 89.741 19.541 89.8933 19.4766C89.9578 19.4473 90.0339 19.4326 90.1218 19.4326C90.2273 19.4326 90.3445 19.4531 90.4734 19.4941C91.0945 19.7227 91.7126 19.8369 92.3279 19.8369C93.0955 19.8369 93.7166 19.6553 94.1912 19.292C94.6716 18.9346 94.9119 18.3721 94.9119 17.6045V16.9189L94.9558 16.4531H94.9119C94.3787 17.3672 93.5408 17.8242 92.3982 17.8242C91.7478 17.8242 91.156 17.7012 90.6228 17.4551C90.0896 17.209 89.6501 16.8721 89.3044 16.4443C88.9646 16.0166 88.7009 15.5215 88.5134 14.959C88.3318 14.3965 88.241 13.7959 88.241 13.1572ZM90.5437 13.0693C90.5437 13.9131 90.7458 14.5957 91.1501 15.1172C91.5603 15.6328 92.1257 15.8906 92.8464 15.8906C93.1335 15.8906 93.3972 15.8467 93.6375 15.7588C93.8777 15.665 94.1003 15.5215 94.3054 15.3281C94.5164 15.1289 94.6804 14.8506 94.7976 14.4932C94.9148 14.1299 94.9734 13.7021 94.9734 13.21C94.9734 11.4346 94.2292 10.5469 92.741 10.5469C92.0437 10.5469 91.5017 10.7754 91.115 11.2324C90.7341 11.6836 90.5437 12.2959 90.5437 13.0693Z"
     fill="#212529"
     id="path46"
     style="fill:#ffffff;fill-opacity:1" />
  <path
     d="M98.9109 13.4121C98.9109 11.9941 99.3416 10.8398 100.203 9.94922C101.07 9.05273 102.192 8.60449 103.569 8.60449C104.841 8.60449 105.837 9.01172 106.557 9.82617C107.278 10.6348 107.638 11.6865 107.638 12.9814C107.638 13.1865 107.559 13.3682 107.401 13.5264C107.249 13.6787 107.064 13.7549 106.847 13.7549H101.249C101.319 14.5518 101.612 15.1699 102.128 15.6094C102.649 16.0488 103.273 16.2686 104 16.2686C104.697 16.2686 105.356 16.0723 105.977 15.6797C106.141 15.5977 106.291 15.5566 106.426 15.5566C106.66 15.5566 106.847 15.6797 106.988 15.9258L107.208 16.2861C107.29 16.4443 107.331 16.5908 107.331 16.7256C107.331 16.9541 107.205 17.1445 106.953 17.2969C105.98 17.9121 104.943 18.2197 103.842 18.2197C102.857 18.2197 101.984 18 101.222 17.5605C100.467 17.1211 99.8923 16.5381 99.4998 15.8115C99.1072 15.085 98.9109 14.2852 98.9109 13.4121ZM101.302 12.3662H105.371C105.353 11.7393 105.172 11.2441 104.826 10.8809C104.486 10.5176 104.05 10.3359 103.516 10.3359C102.936 10.3359 102.45 10.5205 102.057 10.8896C101.665 11.2529 101.413 11.7451 101.302 12.3662Z"
     fill="#212529"
     id="path48"
     style="fill:#ffffff;fill-opacity:1" />
  <path
     d="M109.273 15.1348V5.97656C109.273 5.47266 109.519 5.2207 110.011 5.2207H110.802C111.295 5.2207 111.541 5.47266 111.541 5.97656V14.959C111.541 15.3633 111.605 15.6416 111.734 15.7939C111.869 15.9463 112.045 16.0342 112.261 16.0576C112.631 16.0986 112.815 16.3154 112.815 16.708V17.3145C112.815 17.8301 112.563 18.0879 112.059 18.0879C111.778 18.0879 111.523 18.0703 111.295 18.0352C111.066 18 110.82 17.9238 110.556 17.8066C110.293 17.6836 110.073 17.5195 109.897 17.3145C109.721 17.1094 109.572 16.8223 109.449 16.4531C109.332 16.0781 109.273 15.6387 109.273 15.1348Z"
     fill="#212529"
     id="path50"
     style="fill:#ffffff;fill-opacity:1" />
  <path
     d="M113.747 16.8223C113.741 16.793 113.741 16.7637 113.747 16.7344C113.747 16.5762 113.805 16.415 113.923 16.251L114.142 15.9258C114.277 15.7383 114.427 15.6328 114.591 15.6094C114.62 15.6035 114.649 15.6006 114.678 15.6006C114.819 15.6006 114.98 15.6504 115.162 15.75C115.385 15.873 115.563 15.9697 115.698 16.04C115.833 16.1045 116.047 16.1777 116.34 16.2598C116.638 16.3418 116.931 16.3828 117.219 16.3828C117.611 16.3828 117.922 16.3008 118.15 16.1367C118.379 15.9668 118.493 15.7354 118.493 15.4424C118.493 15.2432 118.408 15.0674 118.238 14.915C118.074 14.7627 117.857 14.6338 117.588 14.5283C117.318 14.417 117.022 14.3086 116.7 14.2031C116.378 14.0918 116.055 13.96 115.733 13.8076C115.411 13.6553 115.115 13.4795 114.845 13.2803C114.576 13.0811 114.356 12.8174 114.186 12.4893C114.022 12.1611 113.94 11.7832 113.94 11.3555C113.94 10.4883 114.271 9.81445 114.933 9.33398C115.601 8.84766 116.439 8.60449 117.447 8.60449C118.361 8.60449 119.214 8.82715 120.005 9.27246C120.262 9.41309 120.391 9.60059 120.391 9.83496C120.391 9.96387 120.353 10.1104 120.277 10.2744L120.093 10.5996C119.958 10.8633 119.767 10.9951 119.521 10.9951C119.392 10.9951 119.249 10.96 119.091 10.8896C118.417 10.5908 117.834 10.4414 117.342 10.4414C116.943 10.4414 116.635 10.5205 116.419 10.6787C116.208 10.8311 116.102 11.0508 116.102 11.3379C116.102 11.5371 116.184 11.7158 116.348 11.874C116.518 12.0264 116.738 12.1553 117.008 12.2607C117.277 12.3662 117.573 12.4717 117.895 12.5771C118.218 12.6826 118.54 12.8115 118.862 12.9639C119.184 13.1104 119.48 13.2832 119.75 13.4824C120.019 13.6758 120.236 13.9365 120.4 14.2646C120.57 14.5928 120.655 14.9678 120.655 15.3896C120.655 16.21 120.336 16.8867 119.697 17.4199C119.058 17.9531 118.215 18.2197 117.166 18.2197C116.041 18.2197 115.018 17.9062 114.098 17.2793C113.887 17.1621 113.77 17.0098 113.747 16.8223Z"
     fill="#212529"
     id="path52"
     style="fill:#ffffff;fill-opacity:1" />
</svg>
